<svg xmlns="http://www.w3.org/2000/svg" width="96.823" height="47.465" viewBox="0 0 96.823 47.465"><g transform="translate(90.366 1.082)"><path d="M242.522,72.178h0a.618.618,0,0,1-.608-.629l.158-22.437a.615.615,0,0,1,.308-.533,8.532,8.532,0,0,0,2.259-2.281,13.913,13.913,0,0,0,2.346-7.96c.079-5.2.158-11.7.158-11.76a.619.619,0,0,1,.612-.617h.008a.618.618,0,0,1,.608.629c0,.064-.079,6.561-.158,11.764-.111,7.134-3.807,10.3-4.913,11.1l-.154,22.1A.629.629,0,0,1,242.522,72.178Z" transform="translate(-241.91 -25.96)" fill="#e60012"/></g><g transform="translate(79.423 1.084)"><path d="M213.748,72.184a.618.618,0,0,1-.336-.1.632.632,0,0,1-.182-.862c.036-.056,3.617-5.724,3.617-11.788a17.669,17.669,0,0,0-3.57-10.345.64.64,0,0,1-.047-.746c.036-.056,3.617-5.724,3.617-11.788A15.405,15.405,0,0,0,213.791,27a.628.628,0,0,1,.051-.878.606.606,0,0,1,.865.048,16.386,16.386,0,0,1,3.369,10.389c0,5.575-2.745,10.662-3.582,12.08a18.722,18.722,0,0,1,3.582,10.79c0,6.441-3.661,12.225-3.815,12.465A.6.6,0,0,1,213.748,72.184Z" transform="translate(-213.133 -25.964)" fill="#e60012"/></g><g transform="translate(64.115 0.806)"><path d="M175.251,71.758a.62.62,0,0,1-.592-.461.629.629,0,0,1,.43-.765c4-1.1,3.614-6.581,3.61-6.637V25.881a.612.612,0,1,1,1.224,0V63.823c.17,2.276-.553,6.825-4.514,7.911A.54.54,0,0,1,175.251,71.758Z" transform="translate(-174.637 -25.26)" fill="#e60012"/></g><g transform="translate(56.805 0.802)"><path d="M161.13,71.748a.776.776,0,0,1-.162-.02c-3.961-1.09-4.688-5.635-4.514-7.911V25.871a.612.612,0,1,1,1.224,0V63.885c-.016.224-.371,5.543,3.61,6.637a.621.621,0,0,1,.43.765A.609.609,0,0,1,161.13,71.748Z" transform="translate(-156.431 -25.25)" fill="#e60012"/></g><g transform="translate(42.15 1.088)"><path d="M127.167,72.186a.616.616,0,0,1-.588-.449L120.153,49.3a.638.638,0,0,1,.067-.5c.036-.06,3.689-6.164,3.689-12.233a15.405,15.405,0,0,0-3.057-9.555.628.628,0,0,1,.051-.878.606.606,0,0,1,.865.048,16.386,16.386,0,0,1,3.369,10.389c0,5.8-3.021,11.415-3.728,12.646l6.35,22.177a.623.623,0,0,1-.419.774A.889.889,0,0,1,127.167,72.186Z" transform="translate(-120.13 -25.974)" fill="#e60012"/></g><g transform="translate(32.926 0.896)"><line y2="45.27" transform="translate(0.612 0.612)" fill="#e60012"/><path d="M97.3,71.988a.617.617,0,0,1-.612-.621V26.111a.612.612,0,1,1,1.224,0V71.363A.618.618,0,0,1,97.3,71.988Z" transform="translate(-96.69 -25.49)" fill="#e60012"/></g><g transform="translate(0 4.008)"><path d="M28.264,76.827a.6.6,0,0,1-.383-.136.632.632,0,0,1-.095-.879c.059-.072,5.833-7.6,1.8-18.427C25.575,46.6,14.347,45.658,14.233,45.65a.625.625,0,0,1-.573-.622V33.992a.612.612,0,1,1,1.224,0V44.475c2.449.353,12.089,2.375,15.848,12.473,4.285,11.514-1.738,19.321-2,19.646A.587.587,0,0,1,28.264,76.827Z" transform="translate(-13.66 -33.37)" fill="#e60012"/></g><g transform="translate(2.855)"><path d="M35.621,23.22l-10.015.162L20.89,27.454l9.589,9.589L32.524,35l-7.543-7.543L29.7,23.382l5.987-.095-.063-.067" transform="translate(-20.89 -23.22)" fill="#fff"/><path d="M41.952,23.39l-5.987.095L31.25,27.556,38.793,35.1l7.436-7.436Z" transform="translate(-27.159 -23.323)" fill="#e60012"/></g></svg>